<svg id="图层_1" data-name="图层 1" xmlns="http://www.w3.org/2000/svg" viewBox="0 0 24 24"><title>common_mangafollow_h_ico</title><path d="M13.47,20.05l-3.24,1.14a1.21,1.21,0,0,1-1.53-.74A1.25,1.25,0,0,1,8.63,20l.1-3.34a2,2,0,0,0-.43-1.29L6.25,12.76a1.18,1.18,0,0,1,.61-1.89l3.26-.95a2.05,2.05,0,0,0,1.09-.78l1.94-2.79a1.19,1.19,0,0,1,1.67-.3,1.22,1.22,0,0,1,.3.3l1.94,2.79a2,2,0,0,0,1.08.78l3.27.95a1.19,1.19,0,0,1,.81,1.48,1.2,1.2,0,0,1-.2.41L20,15.39a1.94,1.94,0,0,0-.42,1.29L19.63,20a1.2,1.2,0,0,1-1.17,1.23,1.28,1.28,0,0,1-.43-.06l-3.24-1.14A2,2,0,0,0,13.47,20.05Z" style="fill:#ffd651;fill-opacity:0.6000000238418579"/><path d="M12.87,18.23l4,1.41a.64.64,0,0,0,.2,0,.57.57,0,0,0,.54-.57L17.5,15a2.64,2.64,0,0,1,.56-1.7L20.61,10a.51.51,0,0,0,.09-.18.55.55,0,0,0-.37-.69l-4-1.18a2.6,2.6,0,0,1-1.43-1L12.46,3.47a.62.62,0,0,0-.14-.14.56.56,0,0,0-.78.14L9.15,6.91a2.59,2.59,0,0,1-1.44,1l-4,1.18a.61.61,0,0,0-.18.09.56.56,0,0,0-.1.78l2.55,3.27A2.64,2.64,0,0,1,6.5,15L6.38,19.1a.48.48,0,0,0,0,.2.55.55,0,0,0,.7.34l4-1.41A2.73,2.73,0,0,1,12.87,18.23ZM7.55,20.85A1.84,1.84,0,0,1,5.2,19.72a1.82,1.82,0,0,1-.1-.66l.11-4.13a1.38,1.38,0,0,0-.28-.88L2.38,10.79A1.84,1.84,0,0,1,2.69,8.2a1.93,1.93,0,0,1,.62-.32L7.36,6.71a1.43,1.43,0,0,0,.73-.53l2.4-3.45a1.84,1.84,0,0,1,3,0l2.4,3.45a1.43,1.43,0,0,0,.73.53l4,1.17a1.85,1.85,0,0,1,1.26,2.29,1.75,1.75,0,0,1-.32.62l-2.55,3.26a1.38,1.38,0,0,0-.28.88l.11,4.13A1.84,1.84,0,0,1,17.11,21a1.87,1.87,0,0,1-.66-.11l-4-1.4a1.39,1.39,0,0,0-.9,0Z" style="fill:#f5ac11"/></svg>